<svg width="120" height="96" viewBox="0 0 120 96" fill="none" xmlns="http://www.w3.org/2000/svg">
  <g fill="#FFFFFF">
    <path d="M5 92L42 4h18L24 92H5Z" />
    <path d="M38 92L75 4h18L57 92H38Z" />
    <path d="M80 4h35v14H72l8-14Z" />
    <rect x="62" y="36" width="50" height="12" />
    <rect x="54" y="64" width="60" height="12" />
    <path d="M13 94h6.7l1.2-3h5l1.1 3H34l-6.2-15h-8.2L13 94Zm7.6-6.2 1.4-3.7 1.5 3.7h-2.9Zm18.6-8.8v15h5.7V85.6h6.5v-4.4H39.2Zm16.5 0V94h5.7v-9.4l6.4 9.4h5.5V81.2h-5.7v8.9l-6.1-8.9h-5.8Zm25 .3c-5 0-8.7 3.5-8.7 8.8 0 5.2 3.8 8.7 8.8 8.7 3.7 0 6.4-1.7 7.6-4.9h-5.3c-.4.7-1.1 1.2-2.3 1.2-1.5 0-2.6-1-2.8-2.7h10.7c.6-5.6-2.7-11.1-8-11.1Zm-3 6.7c.2-1.6 1.2-2.7 3-2.7 1.7 0 2.8 1.1 3 2.7H77.7Zm20-6.7c-5 0-8.7 3.5-8.7 8.8 0 5.2 3.8 8.7 8.8 8.7 3.7 0 6.4-1.7 7.6-4.9h-5.3c-.4.7-1.1 1.2-2.3 1.2-1.5 0-2.6-1-2.8-2.7h10.7c.6-5.6-2.7-11.1-8-11.1Zm-3 6.7c.2-1.6 1.2-2.7 3-2.7 1.7 0 2.8 1.1 3 2.7H97.7Zm14.8-6.7h-5.7V94h5.7v-6.1h2.2c3.9 0 6.8-2.7 6.8-6.4 0-3.8-2.9-6.3-6.8-6.3h-2.2Zm-.1 8.7v-4.4h2.4c1.5 0 2.4.8 2.4 2.2 0 1.5-.9 2.2-2.4 2.2h-2.4Z" />
  </g>
</svg>
